<svg width="796" height="326" viewBox="0 0 796 326" fill="none" xmlns="http://www.w3.org/2000/svg">
<path d="M138.5 157.5C138.5 186.633 118.644 209.5 95 209.5C71.3561 209.5 51.5 186.633 51.5 157.5C51.5 128.367 71.3561 105.5 95 105.5C118.644 105.5 138.5 128.367 138.5 157.5Z" stroke="#AD00FF" stroke-opacity="0.32" stroke-width="5"/>
<path d="M48.3701 157.485C48.3701 140.64 52.6426 127.261 61.1875 117.349C69.7324 107.437 82.0615 102.48 98.1748 102.48C107.452 102.48 115.313 103.921 121.759 106.802C128.204 109.683 132.745 113.857 135.382 119.326C137.14 122.939 136.847 125.381 134.503 126.65L125.714 131.338C122.638 132.998 120.099 132.07 118.097 128.555C116.827 126.309 114.459 124.282 110.992 122.476C107.574 120.669 103.546 119.766 98.9072 119.766C88.6533 119.766 81.4756 123.013 77.374 129.507C73.2725 135.952 71.2217 145.278 71.2217 157.485C71.2217 169.692 73.2725 179.043 77.374 185.537C81.4756 191.982 88.6533 195.205 98.9072 195.205C104.425 195.205 109.063 193.96 112.823 191.47C116.632 188.979 119.269 186.611 120.733 184.365C123.126 180.703 125.665 179.775 128.351 181.582L137.14 187.441C139.532 189.053 139.776 191.494 137.872 194.766C135.04 199.648 130.182 203.823 123.297 207.29C116.412 210.757 108.038 212.49 98.1748 212.49C82.3057 212.49 70.0254 207.534 61.334 197.622C52.6914 187.71 48.3701 174.331 48.3701 157.485Z" fill="#AD00FF"/>
<path d="M154.771 171.548C154.771 159.194 157.847 149.453 163.999 142.324C170.2 135.195 178.94 131.631 190.22 131.631C203.306 131.631 213.022 135 219.37 141.738C225.718 148.477 228.892 159.316 228.892 174.258C228.892 177.188 227.524 178.652 224.79 178.652H176.45C177.231 186.758 179.233 191.86 182.456 193.96C185.679 196.06 189.414 197.109 193.662 197.109C197.715 197.109 200.815 196.572 202.964 195.498C205.112 194.424 206.919 192.959 208.384 191.104C210.044 188.955 212.095 188.613 214.536 190.078L221.86 194.546C224.741 196.304 225.156 198.403 223.105 200.845C220.127 204.409 216.636 207.07 212.632 208.828C208.628 210.586 202.305 211.465 193.662 211.465C179.648 211.465 169.663 207.9 163.706 200.771C157.749 193.643 154.771 183.901 154.771 171.548ZM176.523 164.004H208.384C208.384 158.73 207.065 154.434 204.429 151.113C201.792 147.744 197.593 146.06 191.831 146.06C187.241 146.06 183.604 147.671 180.918 150.894C178.232 154.067 176.768 158.438 176.523 164.004ZM249.253 210C246.323 210 244.858 208.535 244.858 205.605V119.106C244.858 116.909 245.371 114.907 246.396 113.101L252.036 103.213C253.11 101.357 254.38 100.43 255.845 100.43H260.972C263.901 100.43 265.366 101.895 265.366 104.824V205.605C265.366 208.535 263.901 210 260.972 210H249.253ZM281.187 171.548C281.187 159.194 284.263 149.453 290.415 142.324C296.616 135.195 305.356 131.631 316.636 131.631C329.722 131.631 339.438 135 345.786 141.738C352.134 148.477 355.308 159.316 355.308 174.258C355.308 177.188 353.94 178.652 351.206 178.652H302.866C303.647 186.758 305.649 191.86 308.872 193.96C312.095 196.06 315.83 197.109 320.078 197.109C324.131 197.109 327.231 196.572 329.38 195.498C331.528 194.424 333.335 192.959 334.8 191.104C336.46 188.955 338.511 188.613 340.952 190.078L348.276 194.546C351.157 196.304 351.572 198.403 349.521 200.845C346.543 204.409 343.052 207.07 339.048 208.828C335.044 210.586 328.721 211.465 320.078 211.465C306.064 211.465 296.079 207.9 290.122 200.771C284.165 193.643 281.187 183.901 281.187 171.548ZM302.939 164.004H334.8C334.8 158.73 333.481 154.434 330.845 151.113C328.208 147.744 324.009 146.06 318.247 146.06C313.657 146.06 310.02 147.671 307.334 150.894C304.648 154.067 303.184 158.438 302.939 164.004ZM375.669 210C372.739 210 371.274 208.535 371.274 205.605V137.49C371.274 134.561 372.739 133.096 375.669 133.096H387.241C390.171 133.096 391.636 134.561 391.636 137.49V143.496H391.929C393.198 140.371 395.322 137.612 398.301 135.22C401.279 132.827 404.795 131.631 408.848 131.631C411.631 131.631 413.926 131.973 415.732 132.656C417.441 133.291 418.101 134.463 417.71 136.172L415.659 144.888C415.22 146.841 413.901 147.427 411.704 146.646C410.435 146.206 409.214 145.986 408.042 145.986C403.354 145.986 399.473 148.794 396.396 154.409C393.32 160.024 391.782 168.203 391.782 178.945V205.605C391.782 208.535 390.317 210 387.388 210H375.669ZM433.237 210C430.308 210 428.843 208.535 428.843 205.605V137.49C428.843 134.561 430.308 133.096 433.237 133.096H444.956C447.886 133.096 449.351 134.561 449.351 137.49V205.605C449.351 208.535 447.886 210 444.956 210H433.237ZM433.237 121.816C430.308 121.816 428.843 120.352 428.843 117.422V108.047C428.843 105.117 430.308 103.652 433.237 103.652H444.956C447.886 103.652 449.351 105.117 449.351 108.047V117.422C449.351 120.352 447.886 121.816 444.956 121.816H433.237ZM466.709 147.744C463.828 147.744 462.388 146.523 462.388 144.082V136.758C462.388 134.316 463.828 133.096 466.709 133.096H471.689V130.532C471.689 128.335 472.202 126.333 473.228 124.526L478.867 114.639C479.941 112.783 481.211 111.855 482.676 111.855H487.803C490.732 111.855 492.197 113.32 492.197 116.25V133.096H504.062C506.943 133.096 508.384 134.316 508.384 136.758V144.082C508.384 146.523 506.943 147.744 504.062 147.744H492.197V184.072C492.197 189.053 492.539 192.642 493.223 194.839C493.955 196.987 495.811 198.062 498.789 198.062C500.303 198.062 502.012 197.817 503.916 197.329C505.82 196.792 507.31 196.279 508.384 195.791C510.093 195.01 511.216 195.571 511.753 197.476L513.95 205.825C514.39 207.485 513.755 208.706 512.046 209.487C510.435 210.22 508.213 210.879 505.381 211.465C502.598 212.1 499.79 212.417 496.958 212.417C489.976 212.417 484.019 210.977 479.087 208.096C474.155 205.215 471.689 199.282 471.689 190.298V147.744H466.709ZM522.959 138.809C521.641 135 522.446 133.096 525.376 133.096H538.486C540.732 133.096 542.197 134.341 542.881 136.831L553.94 177.773C554.478 179.678 554.941 182.144 555.332 185.171C555.771 188.149 555.991 190.054 555.991 190.884H556.431C557.017 188.296 557.432 186.245 557.676 184.731C557.969 183.169 558.726 180.166 559.946 175.723L570.42 136.831C571.104 134.341 572.568 133.096 574.814 133.096H587.925C590.806 133.096 591.611 135 590.342 138.809L565.659 213.076C562.778 221.768 559.238 228.555 555.039 233.438C550.84 238.32 545.005 240.762 537.534 240.762C533.433 240.762 529.771 240.42 526.548 239.736C524.692 239.346 523.984 238.076 524.424 235.928L526.035 227.871C526.475 225.771 527.72 225.039 529.771 225.674C531.284 226.162 532.7 226.406 534.019 226.406C537.974 226.406 540.977 224.526 543.027 220.767C545.127 217.007 546.519 213.784 547.202 211.099L547.422 210L522.959 138.809ZM597.3 210C593.882 210 592.173 208.169 592.173 204.507V194.692C592.173 191.03 593.882 189.199 597.3 189.199H608.433C611.851 189.199 613.56 191.03 613.56 194.692V204.507C613.56 208.169 611.851 210 608.433 210H597.3ZM641.685 210C638.755 210 637.29 208.535 637.29 205.605V137.49C637.29 134.561 638.755 133.096 641.685 133.096H653.403C656.333 133.096 657.798 134.561 657.798 137.49V205.605C657.798 208.535 656.333 210 653.403 210H641.685ZM641.685 121.816C638.755 121.816 637.29 120.352 637.29 117.422V108.047C637.29 105.117 638.755 103.652 641.685 103.652H653.403C656.333 103.652 657.798 105.117 657.798 108.047V117.422C657.798 120.352 656.333 121.816 653.403 121.816H641.685ZM673.618 171.548C673.618 159.097 676.816 149.331 683.213 142.251C689.658 135.171 699.229 131.631 711.924 131.631C724.619 131.631 734.165 135.171 740.562 142.251C747.007 149.331 750.229 159.097 750.229 171.548C750.229 183.999 747.007 193.765 740.562 200.845C734.165 207.925 724.619 211.465 711.924 211.465C699.229 211.465 689.658 207.925 683.213 200.845C676.816 193.765 673.618 183.999 673.618 171.548ZM695.298 171.548C695.298 180.825 696.714 187.417 699.546 191.323C702.427 195.181 706.553 197.109 711.924 197.109C717.295 197.109 721.396 195.181 724.229 191.323C727.109 187.417 728.55 180.825 728.55 171.548C728.55 162.271 727.109 155.703 724.229 151.846C721.396 147.939 717.295 145.986 711.924 145.986C706.553 145.986 702.427 147.939 699.546 151.846C696.714 155.703 695.298 162.271 695.298 171.548Z" fill="white"/>
</svg>
