<svg width="150" height="150" viewBox="0 0 150 150" fill="none" xmlns="http://www.w3.org/2000/svg">
<path d="M117 75C117 102.452 98.5134 124 76.5 124C54.4867 124 36 102.452 36 75C36 47.5478 54.4867 26 76.5 26C98.5134 26 117 47.5478 117 75Z" stroke="#CB4343" stroke-opacity="0.32" stroke-width="5"/>
<path d="M33 75.0001C33 59.0746 37.001 46.4265 45.0029 37.0559C53.0049 27.6853 64.5505 23 79.6401 23C88.3276 23 95.6891 24.3617 101.726 27.0852C107.761 29.8087 112.013 33.7554 114.483 38.9255C116.129 42.3414 115.855 44.6494 113.66 45.8496L105.429 50.281C102.549 51.8504 100.171 50.9734 98.2962 47.6498C97.1069 45.5264 94.8894 43.6107 91.6427 41.9028C88.4419 40.1948 84.6698 39.3409 80.3256 39.3409C70.7235 39.3409 64.0019 42.4106 60.1609 48.5499C56.32 54.6431 54.3995 63.4599 54.3995 75.0001C54.3995 86.5399 56.32 95.3801 60.1609 101.519C64.0019 107.612 70.7235 110.659 80.3256 110.659C85.493 110.659 89.8363 109.482 93.3573 107.128C96.9243 104.773 99.3937 102.535 100.765 100.411C103.006 96.9494 105.383 96.0721 107.899 97.7804L116.129 103.319C118.369 104.843 118.598 107.151 116.815 110.244C114.163 114.86 109.613 118.806 103.166 122.084C96.7183 125.362 88.8764 127 79.6401 127C64.7792 127 53.2793 122.315 45.1401 112.944C37.0467 103.574 33 90.9255 33 75.0001Z" fill="#E04745"/>
</svg>
