<svg width="200" height="200" viewBox="0 0 200 200" fill="none" xmlns="http://www.w3.org/2000/svg">
<path d="M144.5 98.5C144.5 127.633 124.644 150.5 101 150.5C77.3561 150.5 57.5 127.633 57.5 98.5C57.5 69.3671 77.3561 46.5 101 46.5C124.644 46.5 144.5 69.3671 144.5 98.5Z" stroke="#AD00FF" stroke-opacity="0.32" stroke-width="5"/>
<path d="M54.3701 98.4854C54.3701 81.6396 58.6426 68.2607 67.1875 58.3486C75.7324 48.4365 88.0615 43.4805 104.175 43.4805C113.452 43.4805 121.313 44.9209 127.759 47.8018C134.204 50.6826 138.745 54.8574 141.382 60.3262C143.14 63.9395 142.847 66.3809 140.503 67.6504L131.714 72.3379C128.638 73.998 126.099 73.0703 124.097 69.5547C122.827 67.3086 120.459 65.2822 116.992 63.4756C113.574 61.6689 109.546 60.7656 104.907 60.7656C94.6533 60.7656 87.4756 64.0127 83.374 70.5068C79.2725 76.9521 77.2217 86.2783 77.2217 98.4854C77.2217 110.692 79.2725 120.043 83.374 126.537C87.4756 132.982 94.6533 136.205 104.907 136.205C110.425 136.205 115.063 134.96 118.823 132.47C122.632 129.979 125.269 127.611 126.733 125.365C129.126 121.703 131.665 120.775 134.351 122.582L143.14 128.441C145.532 130.053 145.776 132.494 143.872 135.766C141.04 140.648 136.182 144.823 129.297 148.29C122.412 151.757 114.038 153.49 104.175 153.49C88.3057 153.49 76.0254 148.534 67.334 138.622C58.6914 128.71 54.3701 115.331 54.3701 98.4854Z" fill="#AD00FF"/>
</svg>
